PathFileType	4	(X/Y/Z)	path1_05_0-945.trc
DataRate	CameraRate	NumFrames	NumMarkers	Units	OrigDataRate	OrigDataStartFrame	OrigNumFrames
30	30	5	22	m	30	708	945
Frame#	Time	Hip			RHip			RKnee			RAnkle			RBigToe			RSmallToe			RHeel			LHip			LKnee			LAnkle			LBigToe			LSmallToe			LHeel			Neck			Head			Nose			RShoulder			RElbow			RWrist			LShoulder			LElbow			LWrist		
		X1	Y1	Z1	X2	Y2	Z2	X3	Y3	Z3	X4	Y4	Z4	X5	Y5	Z5	X6	Y6	Z6	X7	Y7	Z7	X8	Y8	Z8	X9	Y9	Z9	X10	Y10	Z10	X11	Y11	Z11	X12	Y12	Z12	X13	Y13	Z13	X14	Y14	Z14	X15	Y15	Z15	X16	Y16	Z16	X17	Y17	Z17	X18	Y18	Z18	X19	Y19	Z19	X20	Y20	Z20	X21	Y21	Z21	X22	Y22	Z22
709	23.633333333333333	2.719202983108307	0.7876617525802032	0.3538435839417963	2.736457730711421	0.7591122532768091	0.4425140929814395	2.872592461508538	0.45305367636921356	0.38823936054275204	2.970105344038487	0.06388147266021972	0.37675211809441433	3.1486721622426037	0.02535711329680263	0.39356836941419215	3.1132384942014375	0.01789672404001069	0.4735805850764392	2.9412868218725112	-0.00790498582413825	0.40537622346972957	2.701556537390446	0.7547941669267845	0.2689833149812561	2.62326199069914	0.44242659410451773	0.2739588190813223	2.4460222853405846	0.10144617609049374	0.26927099568464286	2.592267523658569	-0.0007733005840279857	0.2904470810488824	2.5656097883975644	0.005360593387316367	0.22283548948747428	2.3835004973768585	0.04104876192694065	0.276311278472942	2.737335710255027	1.4110897754820253	0.3194403671904813	2.7458489967225472	1.6290578368787512	0.34779420323453697	2.835951695087844	1.4876259708114157	0.3500590207234053	2.6812865819453786	1.2947627162381619	0.5042889616776025	2.6417601363985312	1.0118855874923631	0.5464882029574244	2.710534872749886	0.8010051954050288	0.5581426596215773	2.7198877200777667	1.2927305737995571	0.17717648326454452	2.7806844646317876	1.0321688039238253	0.15421897347605065	2.913278487264383	0.8665270030813657	0.1540424094067646
710	23.666666666666668	2.7521520780452597	0.785630764318251	0.35961064593234005	2.772364803276421	0.7565123713299381	0.44717519919489757	2.9033138111986307	0.45370233388159437	0.3849548262029439	2.978600013655366	0.06269447122516711	0.373011231272378	3.155320893641159	0.012731060178832113	0.38921468549030513	3.121035003438172	0.009941408863942543	0.46625672998908624	2.944966739636685	-0.011878981785394148	0.3989614134723269	2.7356348277022495	0.7529073139950984	0.2765911547224945	2.6638880242065683	0.43942549496048483	0.269701181936887	2.459332592493783	0.11598417953915956	0.26965908411056894	2.5912460644017896	-0.005118106089560902	0.28951425937992364	2.5626172594443446	0.0009509301474327719	0.2233988012022328	2.391491228101022	0.060889022509715625	0.2783677417485331	2.7664633228516444	1.4104460942056507	0.32343747190196964	2.788844466121232	1.6415721652608557	0.35651276594744535	2.857809958889957	1.4902432563387285	0.3578870749019267	2.7087155712260165	1.2928941824474478	0.5087191123698986	2.6752564582102876	1.0105107560126265	0.5510332185156872	2.7443506066931684	0.8000699965004936	0.5627045474821712	2.7468316568685425	1.2913714163995826	0.1827966503177223	2.8047890859701186	1.0290935071057572	0.15899278697234503	2.9323479954892626	0.8626108865815149	0.15605965714794645
711	23.7	2.785228093336672	0.7854191533560189	0.36534704855180505	2.807638857698645	0.7561356756650596	0.45173783983956534	2.931946838719288	0.45502553532773593	0.38140153292894036	2.9827221937811452	0.06247458841837263	0.3709319497397947	3.1585115551697722	0.004016556903359196	0.387865833858203	3.12488039174872	0.004874688030384988	0.46110586945345344	2.9434210718662683	-0.015011164028306628	0.3930019194138968	2.7700296967098277	0.7531346250291867	0.2835268334231895	2.7092843977123806	0.43719616487892404	0.26630929675478876	2.4790828350467256	0.1333108695506315	0.2708617035843151	2.592309555334893	-0.00958188343188122	0.2865545781779737	2.5606540698404925	-0.0019233404882456773	0.22545563109395164	2.4071671209744316	0.08757861745459924	0.27996033220811245	2.795228769572492	1.4109394998330067	0.3278457010633553	2.832253221017958	1.6544457008836817	0.36173196570871424	2.88214541202719	1.4947255319383372	0.36526413847927336	2.739031710199985	1.2942598719827696	0.510813119314885	2.713365399194976	1.0112944519733935	0.5516563005414633	2.780080214106322	0.7999977069906609	0.5662251515743938	2.7723559652207634	1.2912602670825162	0.18732517890919706	2.8254497764650806	1.0270646450940044	0.16183275342010262	2.94661298059412	0.8571484605017406	0.15754532840945817
712	23.73333333333333	2.8173128684967086	0.7864655177157783	0.37094231354410695	2.840856375406819	0.757206465300024	0.45600015503918245	2.957360076499332	0.45552904962983565	0.37767461602947594	2.9844745204041367	0.06242250695201082	0.37017535905162363	3.1598679351285592	-0.0008021465370894673	0.38927244171929143	3.126688218355646	0.0022066975533792206	0.4576420908556532	2.9396504937878407	-0.017064529413295275	0.3872644654904283	2.803513061169467	0.7546988678580518	0.2895187465986065	2.757429436053323	0.43589551873182875	0.26475547886290307	2.506810237873392	0.15206916111747212	0.2727721186348928	2.5982578317279357	-0.01281458610853717	0.28239670230816727	2.562515683516159	-0.001976208713661491	0.2288296642908434	2.43256679792173	0.11914186168976235	0.28087447524398557	2.823436458716944	1.4123055222336176	0.3323273559939348	2.8725653041746035	1.6647073571368247	0.36347265954223634	2.912443538683858	1.5009571158543888	0.3705557543425155	2.771287191371397	1.297479568297465	0.5118423806618795	2.7541080764211934	1.0135863649835082	0.5492470753843542	2.817551002940888	0.8005333274407836	0.5686612308747485	2.7961892127998262	1.2923730538677463	0.1912358595637098	2.842305231430267	1.025751702118538	0.16296500575746753	2.9562881549613853	0.8501915035259979	0.15893444782827862
713	23.766666666666666	2.8473864957552446	0.7880379803797878	0.3763637600738973	2.871031404647895	0.7587624858851063	0.4600020941598579	2.9789307119714263	0.4540702364533217	0.37416334569733506	2.98508720151954	0.061910287879488844	0.3705539879974973	3.160259426578506	-0.0027465575204014734	0.392789106973081	3.1274089201030106	0.000401491026150177	0.4546450356848557	2.935951536959774	-0.01771661906678605	0.3816699993995094	2.8351151830853976	0.7566701571163337	0.29467174393176526	2.806628164368905	0.4356898358225662	0.2651887561947962	2.5436472685076654	0.17081913051527106	0.2746304290440293	2.6129042234859807	-0.013403186069615878	0.2782619718581205	2.572220673508324	0.0012691508958925575	0.23311050940449163	2.4684985798208716	0.15136106087859183	0.2811240837093213	2.8509891178815048	1.4142569055314649	0.33649900635535884	2.9080946706958852	1.6711214865604578	0.3635925536991457	2.947109200336061	1.5070411456761217	0.3739339233623927	2.8039488200297984	1.3008877290060543	0.5134139580205493	2.794655822803609	1.0165426048070016	0.5457638739148396	2.856147838301236	0.801727114341551	0.5703423606371979	2.8183187124392712	1.2943830812908177	0.19493320894928218	2.8559322326898293	1.024855326193333	0.163590696595676	2.9625159503917797	0.8422970761520744	0.16049540125513068
